<svg width="64" height="65" viewBox="0 0 64 65" fill="none" xmlns="http://www.w3.org/2000/svg">
<path d="M55.4651 32.4917C55.4748 36.8901 54.4421 41.2281 52.4517 45.1503C52.1304 45.7757 52.0548 46.4987 52.2398 47.177C52.4247 47.8554 52.8568 48.4399 53.4511 48.8157C53.7806 49.0241 54.1499 49.1614 54.5355 49.2189C54.9211 49.2763 55.3145 49.2526 55.6904 49.1493C56.0664 49.046 56.4166 48.8654 56.7187 48.619C57.0208 48.3725 57.2681 48.0657 57.4449 47.7182C59.8362 43.0037 61.0834 37.7922 61.0856 32.5059C61.0878 27.2196 59.8449 22.0071 57.4576 17.2906C57.281 16.9428 57.0337 16.6357 56.7315 16.389C56.4294 16.1424 56.079 15.9615 55.7029 15.8581C55.3268 15.7546 54.9333 15.7309 54.5475 15.7884C54.1617 15.8459 53.7921 15.9833 53.4625 16.1919C52.8688 16.5678 52.4371 17.1521 52.2522 17.8301C52.0673 18.508 52.1425 19.2306 52.4631 19.8559C54.446 23.7723 55.4746 28.102 55.4651 32.4917Z" fill="#6FBAF7"/>
<path d="M46.3851 32.4909C46.3897 35.2156 45.8024 37.9088 44.6638 40.3843C44.3785 41.0043 44.3284 41.7069 44.5228 42.3611C44.7172 43.0153 45.1429 43.5765 45.7205 43.9401C46.0596 44.1531 46.4403 44.2913 46.8371 44.3455C47.2339 44.3996 47.6377 44.3685 48.0215 44.2541C48.4053 44.1398 48.7603 43.9448 49.0627 43.6823C49.3652 43.4198 49.6082 43.0958 49.7754 42.7319C51.244 39.5201 52.0051 36.0302 52.0071 32.4985C52.0091 28.9669 51.2519 25.4761 49.7869 22.2626C49.6201 21.8983 49.3774 21.5739 49.075 21.311C48.7726 21.0482 48.4176 20.8529 48.0337 20.7384C47.6497 20.6239 47.2457 20.5927 46.8488 20.647C46.4518 20.7013 46.0711 20.8398 45.732 21.0532C45.1546 21.416 44.729 21.9765 44.5343 22.63C44.3396 23.2835 44.3893 23.9855 44.674 24.6052C45.8073 27.0793 46.3911 29.7696 46.3851 32.4909Z" fill="#6FBAF7"/>
<path d="M27.4969 51.38C24.4942 51.379 21.5349 50.662 18.8647 49.2886C16.1944 47.9151 13.8901 45.9248 12.1429 43.4826C10.3958 41.0405 9.25606 38.2169 8.81837 35.2462C8.38067 32.2755 8.6576 29.2433 9.62619 26.401C10.5948 23.5588 12.2271 20.9884 14.3878 18.9032C16.5484 16.8179 19.1751 15.2779 22.05 14.4109C24.9249 13.5439 27.9651 13.3748 30.9184 13.9178C33.8716 14.4607 36.6529 15.7 39.0314 17.5328C39.571 17.9513 40.2446 18.1591 40.9262 18.1171C41.6078 18.0752 42.2508 17.7864 42.735 17.3049C43.0168 17.0232 43.2353 16.6846 43.3759 16.3117C43.5164 15.9388 43.5758 15.5402 43.55 15.1426C43.5242 14.7449 43.4139 14.3573 43.2263 14.0057C43.0388 13.6541 42.7784 13.3465 42.4625 13.1036C38.8357 10.3064 34.4975 8.58189 29.9401 8.12573C25.3827 7.66957 20.7887 8.50004 16.6795 10.5229C12.5702 12.5457 9.11028 15.6799 6.69232 19.5698C4.27436 23.4597 2.9952 27.9495 3.00001 32.5297C3.00483 37.1098 4.29342 41.5969 6.71955 45.4817C9.14568 49.3665 12.6122 52.4934 16.7257 54.5076C20.8392 56.5218 25.4349 57.3426 29.9913 56.8769C34.5477 56.4112 38.8823 54.6775 42.5033 51.8727C42.8126 51.6314 43.0671 51.3271 43.2499 50.98C43.4328 50.6329 43.5398 50.251 43.5639 49.8594C43.5879 49.4678 43.5285 49.0756 43.3896 48.7087C43.2506 48.3418 43.0353 48.0086 42.7579 47.7313L42.698 47.6727C42.2223 47.1967 41.5893 46.9104 40.9176 46.8675C40.246 46.8247 39.5817 47.0281 39.0493 47.4397C35.7434 50.0006 31.6786 51.387 27.4969 51.38Z" fill="#007CFF"/>
<path d="M42.1822 30.4946C41.6518 29.964 40.9324 29.6659 40.1821 29.6658L30.3422 29.6772C29.6018 29.6929 28.897 29.9981 28.379 30.5272C27.8609 31.0564 27.5708 31.7675 27.5708 32.508C27.5708 33.2486 27.8609 33.9596 28.379 34.4888C28.897 35.018 29.6018 35.3231 30.3422 35.3388H30.36L36.937 35.3299C36.3064 37.4163 35.0025 39.235 33.2289 40.5019C31.4553 41.7687 29.312 42.4123 27.1339 42.3321C21.8161 42.1373 17.5855 37.6788 17.6581 32.3584C17.683 30.6109 18.1724 28.9014 19.076 27.4055C19.9796 25.9095 21.2649 24.6808 22.8001 23.8455C24.3353 23.0102 26.065 22.5984 27.8119 22.6522C29.5588 22.706 31.2599 23.2236 32.7407 24.1519C33.2861 24.4916 33.9306 24.6361 34.5688 24.5616C35.2069 24.4872 35.8009 24.1981 36.2533 23.7419C36.5522 23.4437 36.7803 23.0822 36.9207 22.684C37.0611 22.2857 37.1102 21.8611 37.0644 21.4413C37.0185 21.0216 36.8789 20.6175 36.6559 20.259C36.4329 19.9005 36.1321 19.5966 35.7759 19.37C32.411 17.2388 28.3052 16.4673 24.1459 17.333C21.2308 17.9502 18.5596 19.4054 16.4602 21.5199C14.3609 23.6344 12.9249 26.316 12.3287 29.2354C10.2917 39.2027 17.8885 47.9975 27.5031 47.9975C31.6143 47.9928 35.5557 46.3575 38.4628 43.4505C41.3698 40.5434 43.005 36.602 43.0097 32.4908C43.0091 31.7421 42.7115 31.0242 42.1822 30.4946Z" fill="#002CB8"/>
</svg>
